<svg width="18" height="16" viewBox="0 0 18 16" fill="none" xmlns="http://www.w3.org/2000/svg">
<path d="M3.1 15.5L2.8 15.6C2.74667 15.6267 2.71333 15.6133 2.7 15.56C2.68667 15.5333 2.68 15.5133 2.68 15.5L2.4 15.62C2.36 15.6467 2.32667 15.6333 2.3 15.58L2.16 15.66C2.10667 15.6867 2.06667 15.6733 2.04 15.62C2 15.5667 2.00667 15.5267 2.06 15.5L2.3 15.38L2.04 15.46L1.7 15.58C1.64667 15.6067 1.60667 15.5933 1.58 15.54C1.58 15.5133 1.58 15.4933 1.58 15.48L1.44 15.52C1.38667 15.5467 1.35333 15.54 1.34 15.5C1.28667 15.5133 1.24667 15.4933 1.22 15.44C1.20667 15.4133 1.21333 15.3867 1.24 15.36L1.02 15.46C0.966667 15.4867 0.926667 15.4733 0.9 15.42C0.873333 15.3667 0.886667 15.3267 0.94 15.3L1.22 15.16C1.22 15.16 1.22667 15.16 1.24 15.16C1.24 15.1467 1.24 15.14 1.24 15.14L1.56 15L1.88 14.86L2.02 14.8C1.98 14.72 1.95333 14.6467 1.94 14.58L1.8 14.64L1.48 14.78L1.18 14.94C1.16667 14.94 1.16 14.94 1.16 14.94L0.84 15.04C0.786667 15.0667 0.746667 15.0533 0.72 15C0.706667 14.9333 0.726667 14.8933 0.78 14.88L1.1 14.76L1.4 14.62C1.41333 14.62 1.42 14.62 1.42 14.62L1.72 14.48L1.9 14.4C1.9 14.3733 1.89333 14.3467 1.88 14.32C1.86667 14.28 1.84667 14.2467 1.82 14.22L1.52 14.34C1.52 14.34 1.52 14.3467 1.52 14.36L1.2 14.44L0.9 14.56C0.846667 14.5733 0.806667 14.5533 0.78 14.5C0.766667 14.4467 0.786667 14.4067 0.84 14.38L1.14 14.28C1.14 14.28 1.14667 14.28 1.16 14.28L1.46 14.18L1.74 14.06C1.74 14.06 1.74 14.0533 1.74 14.04C1.75333 14.04 1.76 14.04 1.76 14.04L1.88 14C1.88 13.9333 1.85333 13.8933 1.8 13.88L1.48 14L1.16 14.1L0.82 14.24C0.766667 14.2667 0.726667 14.2533 0.7 14.2C0.673333 14.1467 0.686667 14.1067 0.74 14.08L1.08 13.92C1.09333 13.92 1.1 13.92 1.1 13.92L1.42 13.82L1.72 13.72L1.86 13.66C1.86 13.5667 1.85333 13.5 1.84 13.46L1.5 13.6L1.2 13.74C1.18667 13.74 1.18 13.74 1.18 13.74L0.84 13.86C0.786667 13.8733 0.746667 13.8533 0.72 13.8C0.706667 13.7467 0.726667 13.7067 0.78 13.68L1.12 13.58L1.44 13.44L1.76 13.28C1.76 13.28 1.78667 13.2733 1.84 13.26C1.82667 13.18 1.80667 13.1267 1.78 13.1L1.42 13.24L1.14 13.34C1.14 13.34 1.13333 13.34 1.12 13.34C1.12 13.34 1.12 13.3467 1.12 13.36L0.82 13.44C0.766667 13.4533 0.726667 13.4333 0.7 13.38C0.686667 13.3267 0.706667 13.2933 0.76 13.28L1.08 13.18L1.36 13.06L1.7 12.94L1.8 12.9C1.8 12.86 1.8 12.82 1.8 12.78C1.8 12.74 1.8 12.7067 1.8 12.68L1.48 12.8L1.16 12.96C1.14667 12.96 1.14 12.96 1.14 12.96L0.8 13.06C0.733333 13.0733 0.693333 13.0467 0.68 12.98C0.666667 12.9267 0.686667 12.8933 0.74 12.88L1.08 12.78L1.42 12.64L1.72 12.5C1.73333 12.5 1.75333 12.4933 1.78 12.48C1.78 12.4133 1.77333 12.3533 1.76 12.3L1.46 12.38L1.14 12.5L0.82 12.66C0.766667 12.6867 0.726667 12.6733 0.7 12.62C0.673333 12.5667 0.686667 12.5267 0.74 12.5L1.06 12.34L1.4 12.2L1.76 12.1C1.74667 12.0333 1.74 11.9667 1.74 11.9L1.48 11.96L1.2 12.1L0.9 12.22C0.846667 12.2467 0.806667 12.2333 0.78 12.18C0.753333 12.1267 0.766667 12.0867 0.82 12.06L1.12 11.92L1.4 11.8C1.41333 11.8 1.42 11.8 1.42 11.8C1.42 11.7867 1.42 11.78 1.42 11.78L1.72 11.72C1.72 11.6533 1.71333 11.5933 1.7 11.54L1.5 11.62L1.16 11.72L0.84 11.82C0.773333 11.8333 0.733333 11.8133 0.72 11.76C0.706667 11.6933 0.726667 11.6533 0.78 11.64L1.12 11.56L1.44 11.44L1.68 11.36C1.68 11.28 1.67333 11.2067 1.66 11.14L1.48 11.2L1.18 11.32L0.88 11.42C0.826667 11.4467 0.786667 11.4333 0.76 11.38C0.746667 11.3133 0.766667 11.2733 0.82 11.26L1.1 11.14L1.42 11.02L1.66 10.96C1.64667 10.9067 1.64 10.8533 1.64 10.8L1.5 10.86L1.22 11C1.20667 11 1.2 11 1.2 11L0.88 11.1C0.813333 11.1133 0.773333 11.0933 0.76 11.04C0.746667 10.9733 0.766667 10.9333 0.82 10.92L1.14 10.84L1.42 10.7L1.64 10.6C1.62667 10.5333 1.62 10.4667 1.62 10.4L1.5 10.44L1.18 10.54L0.84 10.68C0.786667 10.7067 0.746667 10.6933 0.72 10.64C0.706667 10.5733 0.726667 10.5333 0.78 10.52L1.1 10.38C1.11333 10.38 1.12 10.38 1.12 10.38L1.44 10.26L1.62 10.2C1.60667 10.1467 1.6 10.0867 1.6 10.02L1.5 10.06L1.18 10.22C1.16667 10.22 1.16 10.22 1.16 10.22L0.88 10.32C0.826667 10.3333 0.786667 10.3133 0.76 10.26C0.746667 10.1933 0.766667 10.1533 0.82 10.14L1.1 10.04L1.42 9.9C1.42 9.9 1.42667 9.9 1.44 9.9L1.6 9.84C1.6 9.76 1.59333 9.68 1.58 9.6L1.46 9.64L1.14 9.78L0.84 9.9C0.786667 9.92667 0.746667 9.90667 0.72 9.84C0.706667 9.78667 0.726667 9.74667 0.78 9.72L1.06 9.62L1.38 9.46C1.39333 9.46 1.4 9.46 1.4 9.46L1.58 9.42C1.58 9.39333 1.58 9.38 1.58 9.38C1.58 9.32667 1.54667 9.3 1.48 9.3L1.2 9.42C1.2 9.42 1.19333 9.42 1.18 9.42L0.86 9.5C0.793333 9.52667 0.753333 9.50667 0.74 9.44C0.726667 9.38667 0.746667 9.35333 0.8 9.34L1.14 9.24L1.42 9.14L1.58 9.06C1.58 8.98 1.58 8.90667 1.58 8.84L1.46 8.88L1.18 9.02L0.84 9.16C0.786667 9.17333 0.746667 9.15333 0.72 9.1C0.706667 9.04667 0.726667 9.00667 0.78 8.98L1.1 8.86L1.4 8.72L1.58 8.64C1.58 8.56 1.54667 8.52 1.48 8.52L1.16 8.66L0.82 8.82C0.766667 8.84667 0.726667 8.83333 0.7 8.78C0.673333 8.72667 0.686667 8.68667 0.74 8.66L1.08 8.5L1.4 8.36L1.58 8.28C1.58 8.21333 1.58 8.14 1.58 8.06L1.48 8.08L1.14 8.24L0.8 8.38C0.746667 8.39333 0.706667 8.37333 0.68 8.32C0.666667 8.26667 0.686667 8.22667 0.74 8.2L1.06 8.08L1.42 7.92L1.6 7.86C1.6 7.80667 1.56667 7.78 1.5 7.78L1.22 7.86L0.9 8.02C0.846667 8.04667 0.806667 8.03333 0.78 7.98C0.753333 7.92667 0.766667 7.88667 0.82 7.86L1.14 7.7C1.15333 7.7 1.16 7.7 1.16 7.7L1.44 7.6L1.6 7.52C1.6 7.44 1.6 7.36 1.6 7.28L1.44 7.34L1.16 7.46C1.16 7.46 1.15333 7.46 1.14 7.46L0.86 7.54C0.806667 7.56667 0.766667 7.55333 0.74 7.5C0.726667 7.43333 0.746667 7.39333 0.8 7.38L1.08 7.28L1.38 7.18L1.62 7.1C1.62 7.03333 1.62 6.96667 1.62 6.9C1.62 6.88667 1.58667 6.89333 1.52 6.92L1.22 7.06L0.88 7.2C0.826667 7.22667 0.786667 7.20667 0.76 7.14C0.746667 7.08667 0.766667 7.04667 0.82 7.02L1.14 6.9L1.44 6.74C1.44 6.74 1.44667 6.74 1.46 6.74L1.62 6.7C1.62 6.62 1.62 6.54667 1.62 6.48L1.48 6.52L1.14 6.62L0.84 6.7C0.786667 6.72667 0.746667 6.70667 0.72 6.64C0.706667 6.58667 0.726667 6.55333 0.78 6.54L1.1 6.44L1.42 6.34L1.62 6.28C1.62 6.28 1.62 6.27333 1.62 6.26C1.62 6.18 1.62 6.12 1.62 6.08L1.48 6.12L1.2 6.26C1.18667 6.26 1.18 6.26 1.18 6.26L0.86 6.36C0.793333 6.37333 0.753333 6.35333 0.74 6.3C0.726667 6.23333 0.746667 6.19333 0.8 6.18L1.12 6.1L1.42 5.96L1.62 5.88C1.62 5.81333 1.62 5.75333 1.62 5.7L1.5 5.76L1.16 5.9L0.82 6C0.766667 6.02667 0.726667 6.00667 0.7 5.94C0.686667 5.88667 0.706667 5.85333 0.76 5.84L1.1 5.72L1.42 5.6L1.62 5.48C1.63333 5.41333 1.64 5.34667 1.64 5.28L1.5 5.32L1.16 5.44L0.86 5.58C0.806667 5.62 0.766667 5.61333 0.74 5.56C0.713333 5.50667 0.726667 5.46 0.78 5.42L1.08 5.28C1.09333 5.26667 1.1 5.26 1.1 5.26L1.44 5.16L1.64 5.1C1.64 5.02 1.64 4.94667 1.64 4.88L1.44 4.94L1.1 5.06L0.82 5.16C0.766667 5.17333 0.726667 5.15333 0.7 5.1C0.686667 5.04667 0.706667 5.00667 0.76 4.98L1.04 4.9L1.38 4.76L1.66 4.7C1.66 4.63333 1.66 4.56667 1.66 4.5L1.46 4.56L1.16 4.7L0.86 4.8C0.806667 4.82667 0.766667 4.81333 0.74 4.76C0.726667 4.70667 0.746667 4.66667 0.8 4.64L1.08 4.52L1.4 4.4L1.68 4.32C1.68 4.28 1.68667 4.24 1.7 4.2C1.7 4.16 1.7 4.12 1.7 4.08L1.5 4.18L1.22 4.28L0.88 4.44C0.826667 4.46667 0.786667 4.45333 0.76 4.4C0.733333 4.33333 0.746667 4.29333 0.8 4.28L1.14 4.12L1.44 4L1.72 3.88C1.72 3.81333 1.72 3.74 1.72 3.66L1.42 3.8L1.12 3.9L0.84 3.98C0.786667 4.00667 0.746667 3.98667 0.72 3.92C0.706667 3.86667 0.726667 3.83333 0.78 3.82L1.08 3.72L1.36 3.64L1.7 3.48C1.7 3.48 1.70667 3.48 1.72 3.48C1.72 3.48 1.72667 3.48 1.74 3.48C1.74 3.42667 1.74 3.38 1.74 3.34L1.46 3.42L1.16 3.52L0.88 3.64C0.826667 3.65333 0.786667 3.63333 0.76 3.58C0.746667 3.52667 0.766667 3.48667 0.82 3.46L1.1 3.36C1.1 3.36 1.10667 3.36 1.12 3.36L1.4 3.26L1.74 3.14C1.74 3.08667 1.74 3.02 1.74 2.94L1.48 3.06L1.18 3.18L0.84 3.28C0.786667 3.30667 0.746667 3.28667 0.72 3.22C0.706667 3.16667 0.726667 3.13333 0.78 3.12L1.12 3L1.42 2.88L1.74 2.74C1.74 2.67333 1.74667 2.59333 1.76 2.5L1.48 2.58L1.14 2.7L0.86 2.8C0.806667 2.81333 0.766667 2.79333 0.74 2.74C0.726667 2.67333 0.746667 2.63333 0.8 2.62L1.1 2.52L1.42 2.42L1.76 2.3C1.76 2.22 1.76 2.15333 1.76 2.1L1.5 2.18L1.22 2.28C1.22 2.28 1.21333 2.28 1.2 2.28L0.9 2.38C0.846667 2.39333 0.806667 2.37333 0.78 2.32C0.766667 2.26667 0.786667 2.22667 0.84 2.2L1.16 2.12L1.44 2L1.76 1.9C1.76 1.83333 1.76 1.78 1.76 1.74L1.48 1.84L1.16 1.98L0.8 2.12C0.746667 2.14667 0.706667 2.13333 0.68 2.08C0.653333 2.02667 0.673333 1.98667 0.74 1.96L1.08 1.8L1.42 1.68L1.78 1.54C1.78 1.48667 1.76667 1.46 1.74 1.46L1.38 1.58C1.36667 1.59333 1.35333 1.6 1.34 1.6C1.32667 1.6 1.3 1.60667 1.26 1.62C1.24667 1.63333 1.24 1.64 1.24 1.64L0.92 1.74C0.866667 1.76667 0.826667 1.74667 0.8 1.68C0.786667 1.62667 0.806667 1.59333 0.86 1.58L1.18 1.46L1.54 1.32L1.86 1.16C1.87333 1.16 1.89333 1.15333 1.92 1.14C1.94667 1.1 1.98 1.06 2.02 1.02C2.16667 0.873332 2.32667 0.793333 2.5 0.779999C2.67333 0.753332 2.84667 0.739999 3.02 0.739999C3.35333 0.713332 3.68 0.693333 4 0.68C4.33333 0.666666 4.66667 0.66 5 0.66C5.13333 0.66 5.26667 0.66 5.4 0.66C5.53333 0.66 5.66667 0.66 5.8 0.66C5.8 0.66 5.80667 0.66 5.82 0.66C5.83333 0.66 5.84 0.66 5.84 0.66C5.94667 0.673333 6.05333 0.699999 6.16 0.739999C6.26667 0.766666 6.37333 0.806666 6.48 0.86C6.68 0.993333 6.83333 1.16667 6.94 1.38C7.06 1.59333 7.17333 1.8 7.28 2C7.53333 2.26667 7.74 2.57333 7.9 2.92C8.06 3.26667 8.22 3.60667 8.38 3.94C8.55333 4.27333 8.76667 4.57333 9.02 4.84C9.02 4.84 9.02667 4.84667 9.04 4.86C9.05333 4.88667 9.06 4.9 9.06 4.9C9.11333 4.99333 9.17333 5.09333 9.24 5.2C9.24 5.18667 9.24667 5.18 9.26 5.18L9.54 5.04L9.88 4.9L10.14 4.8C10.1533 4.77333 10.1667 4.74 10.18 4.7L10.08 4.74L9.74 4.9L9.44 5.04C9.38667 5.06667 9.34667 5.05333 9.32 5C9.29333 4.94667 9.30667 4.90667 9.36 4.88L9.62 4.76C9.56667 4.76 9.53333 4.74 9.52 4.7C9.49333 4.64667 9.50667 4.60667 9.56 4.58L9.9 4.42L10.22 4.28L10.52 4.14C10.5467 4.08667 10.5733 4.04 10.6 4L10.48 4.04L10.18 4.16L9.86 4.28C9.80667 4.30667 9.77333 4.29333 9.76 4.24C9.73333 4.18667 9.74667 4.14667 9.8 4.12L10.12 3.98L10.34 3.9L10.04 3.98C9.97333 4.00667 9.93333 3.98667 9.92 3.92C9.90667 3.86667 9.92667 3.83333 9.98 3.82L10.14 3.78C10.1267 3.76667 10.12 3.75333 10.12 3.74C10.0933 3.68667 10.1067 3.64667 10.16 3.62L10.52 3.46L10.82 3.34L11.12 3.2C11.1333 3.16 11.1533 3.12667 11.18 3.1L11.04 3.16C11.04 3.16 11.0333 3.16 11.02 3.16L10.7 3.28L10.38 3.4C10.3267 3.42667 10.2933 3.41333 10.28 3.36C10.2533 3.30667 10.2667 3.26667 10.32 3.24L10.62 3.1C10.62 3.1 10.6267 3.1 10.64 3.1L10.96 3L11.32 2.84C11.3333 2.81333 11.3133 2.80667 11.26 2.82L10.94 2.96L10.6 3.1C10.5467 3.12667 10.5067 3.11333 10.48 3.06C10.4533 3.00667 10.4667 2.96667 10.52 2.94L10.86 2.78L11.2 2.66L11.5 2.54C11.5267 2.5 11.5533 2.46 11.58 2.42L11.44 2.46L11.1 2.62L10.82 2.76C10.7667 2.78667 10.7267 2.77333 10.7 2.72C10.6733 2.66667 10.6867 2.62667 10.74 2.6L11.04 2.44L11.36 2.3C11.36 2.3 11.3667 2.3 11.38 2.3L11.7 2.2C11.7267 2.16 11.7533 2.12 11.78 2.08L11.64 2.12L11.3 2.26L10.96 2.4C10.8933 2.42667 10.8533 2.41333 10.84 2.36C10.8133 2.30667 10.8267 2.26667 10.88 2.24L11.12 2.14C11.12 2.12667 11.1133 2.11333 11.1 2.1C11.0733 2.04667 11.0867 2.00667 11.14 1.98L11.44 1.84L11.76 1.72L12.04 1.58C12.0667 1.52667 12.0933 1.48 12.12 1.44L11.82 1.58L11.52 1.68C11.4533 1.69333 11.4133 1.67333 11.4 1.62C11.3867 1.55333 11.4067 1.51333 11.46 1.5L11.76 1.42L12.08 1.26C12.08 1.26 12.0867 1.26 12.1 1.26L12.28 1.2C12.3867 1.05333 12.5067 0.933333 12.64 0.84C12.8 0.733333 12.9667 0.68 13.14 0.68C13.3133 0.666666 13.4867 0.66 13.66 0.66C13.6867 0.66 13.7067 0.66 13.72 0.66C13.7733 0.66 13.8267 0.666666 13.88 0.68C13.9333 0.68 13.9867 0.68 14.04 0.68C14.1867 0.68 14.3333 0.686666 14.48 0.699999C14.6267 0.699999 14.7733 0.699999 14.92 0.699999C15.12 0.699999 15.32 0.699999 15.52 0.699999C15.72 0.686666 15.92 0.673333 16.12 0.66C16.1467 0.66 16.1733 0.66 16.2 0.66C16.3733 0.646666 16.54 0.653332 16.7 0.68C16.8733 0.693333 17.0267 0.766666 17.16 0.899999C17.28 1.03333 17.3467 1.18 17.36 1.34C17.3867 1.5 17.4 1.66 17.4 1.82C17.4 1.87333 17.4 1.90667 17.4 1.92C17.4133 2.25333 17.42 2.58667 17.42 2.92C17.42 3.25333 17.4267 3.58 17.44 3.9C17.4533 4.3 17.4533 4.7 17.44 5.1C17.4267 5.48667 17.4133 5.88 17.4 6.28C17.3867 6.38667 17.3733 6.5 17.36 6.62C17.36 6.72667 17.36 6.84 17.36 6.96C17.3067 7.74667 17.28 8.54 17.28 9.34C17.2933 10.14 17.3 10.94 17.3 11.74C17.3 11.8067 17.3 11.8733 17.3 11.94C17.3133 11.9933 17.32 12.0533 17.32 12.12C17.32 12.3867 17.32 12.6533 17.32 12.92C17.3333 13.1867 17.34 13.4533 17.34 13.72C17.34 13.8533 17.34 13.9867 17.34 14.12C17.3533 14.24 17.36 14.3667 17.36 14.5C17.36 14.5 17.3533 14.5067 17.34 14.52C17.34 14.5467 17.34 14.56 17.34 14.56C17.2867 14.8 17.1933 14.9733 17.06 15.08C16.94 15.2 16.76 15.2733 16.52 15.3C16.52 15.3 16.5067 15.3 16.48 15.3C16.4667 15.3 16.46 15.3 16.46 15.3C16.38 15.3 16.2933 15.2933 16.2 15.28C16.12 15.28 16.04 15.2733 15.96 15.26L15.86 15.3L15.58 15.4L15.26 15.52C15.2067 15.5467 15.1667 15.5333 15.14 15.48C15.14 15.48 15.14 15.4733 15.14 15.46L14.9 15.58C14.8467 15.6067 14.8067 15.5933 14.78 15.54C14.78 15.5267 14.78 15.5133 14.78 15.5L14.46 15.6C14.3933 15.6267 14.3533 15.6133 14.34 15.56C14.3267 15.4933 14.3467 15.4533 14.4 15.44L14.72 15.32L15 15.2C14.9733 15.2 14.9533 15.2 14.94 15.2L14.74 15.3L14.38 15.44L14.08 15.56C14.0267 15.5867 13.9867 15.5733 13.96 15.52C13.96 15.5067 13.96 15.5 13.96 15.5L13.82 15.56C13.7667 15.5867 13.7267 15.5733 13.7 15.52C13.6733 15.48 13.6733 15.4467 13.7 15.42L13.34 15.5C13.3133 15.5133 13.2867 15.5133 13.26 15.5L13.08 15.54C13.0267 15.5667 12.9933 15.5533 12.98 15.5C12.98 15.4867 12.9733 15.48 12.96 15.48L12.78 15.56C12.7133 15.5867 12.6733 15.5733 12.66 15.52C12.6467 15.4933 12.6467 15.4667 12.66 15.44L12.42 15.52C12.3667 15.5467 12.3267 15.5333 12.3 15.48C12.2867 15.4267 12.3067 15.3867 12.36 15.36L12.74 15.22L12.58 15.26L12.28 15.36L11.96 15.48C11.9067 15.5067 11.8667 15.4933 11.84 15.44L11.6 15.5C11.5333 15.5267 11.4933 15.5067 11.48 15.44C11.4667 15.3867 11.4867 15.3533 11.54 15.34L11.9 15.24L12.18 15.16L12.44 15.02C12.4 14.9933 12.36 14.9733 12.32 14.96L12.14 15.02L11.82 15.1L11.52 15.26L11.2 15.4C11.1467 15.4267 11.1067 15.4133 11.08 15.36C11.0533 15.3067 11.0667 15.2667 11.12 15.24L11.44 15.1L11.74 14.94C11.74 14.94 11.7467 14.94 11.76 14.94L12.18 14.8C12.1533 14.7867 12.1267 14.7667 12.1 14.74C12.0867 14.7133 12.06 14.6867 12.02 14.66C12.0067 14.6733 12 14.68 12 14.68L11.68 14.76L11.32 14.86L11.02 14.94C10.9667 14.9667 10.9267 14.9467 10.9 14.88C10.8867 14.8267 10.9067 14.7933 10.96 14.78L11.28 14.68L11.62 14.58L12.02 14.46C12.0067 14.42 11.9933 14.3733 11.98 14.32C11.98 14.3067 11.98 14.2933 11.98 14.28L11.68 14.38L11.34 14.54L11 14.7C10.9467 14.7267 10.9067 14.7133 10.88 14.66C10.8533 14.5933 10.8667 14.5533 10.92 14.54L11.26 14.38L11.62 14.22L11.98 14.08C11.98 14.0667 11.98 14.0467 11.98 14.02C11.98 13.9533 11.98 13.9067 11.98 13.88L11.72 14L11.44 14.14C11.44 14.14 11.44 14.1467 11.44 14.16C11.4267 14.16 11.42 14.16 11.42 14.16L11.1 14.26C11.0467 14.2867 11.0067 14.2667 10.98 14.2C10.9667 14.1467 10.9867 14.1133 11.04 14.1L11.36 13.98L11.64 13.84L11.98 13.68C11.9933 13.5733 11.9933 13.5 11.98 13.46L11.68 13.54L11.34 13.68L11 13.8C10.9467 13.8133 10.9067 13.7933 10.88 13.74C10.8667 13.6867 10.8867 13.6467 10.94 13.62L11.28 13.52L11.62 13.38L12 13.26C12 13.2067 12 13.16 12 13.12L11.72 13.22L11.4 13.34L11.04 13.5C10.9867 13.5267 10.9467 13.5133 10.92 13.46C10.8933 13.4067 10.9133 13.3667 10.98 13.34L11.32 13.18L11.66 13.04L12 12.92C12 12.8533 12 12.7867 12 12.72L11.74 12.8L11.44 12.9L11.14 13C11.0867 13.0133 11.0467 12.9933 11.02 12.94C11.0067 12.8733 11.0267 12.8333 11.08 12.82L11.4 12.72L11.68 12.64L12.02 12.52C12.02 12.4933 12.02 12.4533 12.02 12.4C12.02 12.3467 12.0133 12.3133 12 12.3L11.7 12.44L11.4 12.56C11.4 12.56 11.3933 12.56 11.38 12.56L11.06 12.68C11.0067 12.6933 10.9667 12.6733 10.94 12.62C10.9267 12.5667 10.9467 12.5267 11 12.5L11.32 12.4L11.64 12.26L11.92 12.14C11.92 12.14 11.9533 12.1267 12.02 12.1C12.02 12.02 12.02 11.9467 12.02 11.88L11.7 11.96L11.36 12.06L11.02 12.16C10.9667 12.1867 10.9267 12.1733 10.9 12.12C10.8867 12.0533 10.9067 12.0133 10.96 12L11.32 11.88L11.64 11.78L12.04 11.68C12.04 11.6133 12.04 11.5467 12.04 11.48L11.7 11.6L11.38 11.74L11.02 11.88C10.9667 11.8933 10.9267 11.8733 10.9 11.82C10.9 11.8067 10.9 11.7933 10.9 11.78C10.8733 11.8067 10.8467 11.8333 10.82 11.86C10.74 11.9133 10.6533 11.9533 10.56 11.98C10.4667 12.0067 10.3667 12.0333 10.26 12.06C10.18 12.0733 10.1 12.08 10.02 12.08C9.94 12.08 9.86 12.08 9.78 12.08C9.68667 12.08 9.61333 12.08 9.56 12.08C9.50667 12.08 9.42667 12.0867 9.32 12.1C9.32 12.1 9.31333 12.1 9.3 12.1L8.98 12.18C8.91333 12.2067 8.87333 12.1867 8.86 12.12C8.86 12.12 8.86 12.1133 8.86 12.1C8.83333 12.1 8.80667 12.1 8.78 12.1L8.6 12.14C8.54667 12.1667 8.51333 12.1533 8.5 12.1L8.38 12.12C8.32667 12.1467 8.28667 12.1267 8.26 12.06C8.24667 12.0333 8.23333 12.02 8.22 12.02L7.92 12.1C7.86667 12.1267 7.83333 12.1133 7.82 12.06L7.62 12.14C7.56667 12.1667 7.52667 12.1533 7.5 12.1C7.47333 12.0467 7.48667 12.0067 7.54 11.98L7.84 11.84C7.85333 11.84 7.86 11.84 7.86 11.84L8.08 11.78C8.06667 11.7533 8.05333 11.7267 8.04 11.7L7.78 11.8L7.46 11.92L7.16 12.06C7.17333 12.3133 7.18667 12.5733 7.2 12.84C7.21333 13.1067 7.22667 13.3667 7.24 13.62C7.24 13.6733 7.24 13.7533 7.24 13.86C7.25333 14.06 7.25333 14.2667 7.24 14.48C7.22667 14.68 7.13333 14.8533 6.96 15C6.84 15.12 6.7 15.1867 6.54 15.2C6.39333 15.2267 6.24 15.24 6.08 15.24C6.04 15.24 6.00667 15.24 5.98 15.24C5.9 15.24 5.82 15.24 5.74 15.24L5.6 15.3L5.28 15.46L4.98 15.58C4.92667 15.6067 4.88667 15.5933 4.86 15.54C4.84667 15.5 4.85333 15.4667 4.88 15.44L4.6 15.54C4.54667 15.5667 4.50667 15.5533 4.48 15.5C4.46667 15.4467 4.48667 15.4067 4.54 15.38L4.84 15.26C4.84 15.26 4.83333 15.26 4.82 15.26C4.82 15.26 4.81333 15.26 4.8 15.26L4.52 15.36L4.26 15.44L3.94 15.56C3.88667 15.5867 3.84667 15.5733 3.82 15.52C3.80667 15.4933 3.80667 15.4667 3.82 15.44L3.5 15.54C3.44667 15.5667 3.40667 15.5533 3.38 15.5L3.2 15.54C3.16 15.5533 3.12667 15.54 3.1 15.5ZM7.34 9.78C7.39333 9.76667 7.42667 9.79333 7.44 9.86C7.45333 9.88667 7.44667 9.91333 7.42 9.94C7.46 10.0067 7.49333 10.06 7.52 10.1C7.57333 10.0867 7.61333 10.1067 7.64 10.16C7.64 10.2 7.63333 10.2267 7.62 10.24C7.64667 10.2933 7.68 10.3467 7.72 10.4C7.77333 10.3867 7.80667 10.4067 7.82 10.46C7.83333 10.5 7.82667 10.5333 7.8 10.56C7.82667 10.5733 7.84667 10.5933 7.86 10.62C7.86 10.6333 7.86667 10.6467 7.88 10.66C7.89333 10.6733 7.90667 10.6933 7.92 10.72C7.96 10.7067 7.98667 10.7267 8 10.78C8.01333 10.7933 8.01333 10.8133 8 10.84C8.05333 10.92 8.09333 10.98 8.12 11.02C8.16 11.02 8.18667 11.04 8.2 11.08C8.2 11.0933 8.2 11.1133 8.2 11.14C8.22667 11.18 8.24667 11.2067 8.26 11.22C8.27333 11.2467 8.28667 11.2733 8.3 11.3C8.32667 11.3267 8.35333 11.3533 8.38 11.38C8.43333 11.3667 8.47333 11.3867 8.5 11.44C8.5 11.4533 8.5 11.4733 8.5 11.5C8.5 11.5 8.50667 11.5067 8.52 11.52C8.56 11.5467 8.61333 11.5667 8.68 11.58L8.82 11.52C8.87333 11.5067 8.91333 11.5267 8.94 11.58L9.18 11.52C9.23333 11.5067 9.26667 11.5267 9.28 11.58C9.29333 11.5933 9.3 11.6 9.3 11.6L9.52 11.52C9.57333 11.5067 9.61333 11.5267 9.64 11.58C9.64 11.5933 9.64 11.6 9.64 11.6L9.88 11.52C9.93333 11.5067 9.96667 11.5267 9.98 11.58C9.99333 11.5933 10 11.6 10 11.6C10.0133 11.6 10.0267 11.6 10.04 11.6L10.22 11.54C10.2467 11.5267 10.2867 11.5267 10.34 11.54L10.6 11.42C10.68 11.34 10.7467 11.2467 10.8 11.14C10.8667 11.0333 10.9267 10.9333 10.98 10.84C11.1 10.64 11.22 10.44 11.34 10.24C11.46 10.0267 11.5867 9.82 11.72 9.62C11.7467 9.56667 11.7733 9.51333 11.8 9.46C11.84 9.40667 11.8733 9.36 11.9 9.32C11.9133 9.30667 11.9267 9.28667 11.94 9.26C11.94 9.22 11.9467 9.2 11.96 9.2C11.96 9.18667 11.9667 9.17333 11.98 9.16C11.9933 9.09333 12.02 9.03333 12.06 8.98C12.1 8.91333 12.1667 8.89333 12.26 8.92C12.38 8.93333 12.44 8.97333 12.44 9.04C12.4533 9.10667 12.4533 9.18 12.44 9.26C12.4267 9.34 12.42 9.39333 12.42 9.42C12.4333 9.54 12.44 9.66 12.44 9.78C12.4533 9.88667 12.46 10 12.46 10.12C12.5 10.4933 12.52 10.8733 12.52 11.26C12.52 11.6467 12.5133 12.0333 12.5 12.42C12.4867 12.5267 12.48 12.64 12.48 12.76C12.48 12.8667 12.48 12.98 12.48 13.1C12.48 13.2333 12.4733 13.3667 12.46 13.5C12.46 13.62 12.46 13.7467 12.46 13.88C12.46 13.9067 12.46 13.9467 12.46 14C12.4467 14.1067 12.4467 14.1867 12.46 14.24C12.4867 14.3867 12.5267 14.4867 12.58 14.54C12.6333 14.58 12.7333 14.62 12.88 14.66C12.9467 14.6733 13.02 14.68 13.1 14.68C13.18 14.68 13.26 14.68 13.34 14.68C13.38 14.68 13.42 14.68 13.46 14.68C13.5 14.6667 13.54 14.66 13.58 14.66C13.7667 14.6733 13.9467 14.6867 14.12 14.7C14.3067 14.7 14.4933 14.7 14.68 14.7C14.8533 14.7133 15.0267 14.7267 15.2 14.74C15.3867 14.7533 15.5733 14.7667 15.76 14.78C16.2667 14.7533 16.5733 14.72 16.68 14.68C16.7867 14.6267 16.8533 14.56 16.88 14.48C16.88 14.3467 16.8733 14.22 16.86 14.1C16.86 13.98 16.86 13.86 16.86 13.74V13.72C16.86 13.4667 16.8533 13.2067 16.84 12.94C16.84 12.6733 16.84 12.4067 16.84 12.14C16.84 12.0733 16.8333 12.0067 16.82 11.94C16.82 11.8733 16.82 11.8133 16.82 11.76C16.82 10.96 16.8133 10.1533 16.8 9.34C16.8 8.52667 16.8267 7.72 16.88 6.92C16.88 6.81333 16.88 6.70667 16.88 6.6C16.8933 6.48 16.9067 6.36667 16.92 6.26C16.9333 5.87333 16.9467 5.48667 16.96 5.1C16.9733 4.7 16.9733 4.30667 16.96 3.92C16.9467 3.58667 16.94 3.25333 16.94 2.92C16.94 2.58667 16.9333 2.26 16.92 1.94C16.92 1.9 16.9267 1.85333 16.94 1.8C16.94 1.70667 16.9333 1.60667 16.92 1.5C16.92 1.39333 16.8867 1.30667 16.82 1.24C16.7533 1.17333 16.6667 1.14 16.56 1.14C16.4533 1.12667 16.3533 1.12667 16.26 1.14C16.2067 1.14 16.1667 1.14 16.14 1.14C15.94 1.15333 15.7333 1.16667 15.52 1.18C15.32 1.18 15.12 1.18 14.92 1.18C14.7733 1.18 14.62 1.18 14.46 1.18C14.3133 1.16667 14.1667 1.16 14.02 1.16C13.9667 1.16 13.9133 1.16 13.86 1.16C13.8067 1.14667 13.7533 1.14 13.7 1.14C13.6867 1.14 13.6533 1.14 13.6 1.14C13.48 1.12667 13.36 1.12667 13.24 1.14C13.12 1.14 13.0067 1.17333 12.9 1.24C12.7267 1.36 12.5933 1.52667 12.5 1.74C12.4067 1.94 12.3133 2.12667 12.22 2.3C12.02 2.62 11.82 2.94667 11.62 3.28C11.4333 3.61333 11.2333 3.93333 11.02 4.24C10.86 4.49333 10.7067 4.75333 10.56 5.02C10.4133 5.27333 10.26 5.52667 10.1 5.78C10.0333 5.88667 9.96667 5.99333 9.9 6.1C9.84667 6.20667 9.78667 6.31333 9.72 6.42C9.70667 6.42 9.68667 6.43333 9.66 6.46C9.62 6.47333 9.59333 6.48 9.58 6.48C9.5 6.48 9.44 6.46 9.4 6.42C9.37333 6.38 9.34667 6.33333 9.32 6.28C9.32 6.28 9.31333 6.28 9.3 6.28C9.28667 6.25333 9.28 6.22 9.28 6.18C9.26667 6.15333 9.25333 6.12667 9.24 6.1C9.14667 5.94 9.04667 5.78667 8.94 5.64C8.84667 5.48 8.75333 5.32 8.66 5.16C8.39333 4.89333 8.18 4.58667 8.02 4.24C7.86 3.89333 7.69333 3.55333 7.52 3.22C7.36 2.87333 7.15333 2.56667 6.9 2.3C6.9 2.3 6.9 2.29333 6.9 2.28C6.88667 2.28 6.88 2.28 6.88 2.28C6.78667 2.10667 6.69333 1.92 6.6 1.72C6.50667 1.52 6.38 1.36667 6.22 1.26C6.15333 1.22 6.08 1.19333 6 1.18C5.92 1.16667 5.84667 1.15333 5.78 1.14C5.64667 1.14 5.51333 1.14 5.38 1.14C5.26 1.14 5.13333 1.14 5 1.14C4.66667 1.14 4.34 1.14667 4.02 1.16C3.7 1.17333 3.37333 1.18667 3.04 1.2C3.01333 1.21333 2.97333 1.22 2.92 1.22C2.82667 1.22 2.72667 1.22667 2.62 1.24C2.51333 1.24 2.42667 1.28 2.36 1.36C2.29333 1.42667 2.25333 1.50667 2.24 1.6C2.24 1.69333 2.24 1.79333 2.24 1.9C2.24 1.95333 2.24 1.99333 2.24 2.02C2.22667 2.38 2.22 2.74667 2.22 3.12C2.22 3.49333 2.20667 3.86 2.18 4.22C2.18 4.24667 2.17333 4.27333 2.16 4.3C2.16 4.39333 2.15333 4.48667 2.14 4.58C2.15333 4.58 2.16667 4.59333 2.18 4.62C2.19333 4.66 2.18 4.69333 2.14 4.72C2.14 4.8 2.13333 4.88 2.12 4.96C2.14667 4.96 2.16667 4.97333 2.18 5C2.19333 5.05333 2.17333 5.09333 2.12 5.12C2.12 5.18667 2.12 5.26 2.12 5.34C2.14667 5.34 2.16667 5.36 2.18 5.4C2.19333 5.45333 2.16667 5.49333 2.1 5.52C2.1 5.58667 2.1 5.65333 2.1 5.72C2.14 5.73333 2.16667 5.76 2.18 5.8C2.19333 5.85333 2.16667 5.88667 2.1 5.9C2.1 5.96667 2.1 6.04 2.1 6.12C2.14 6.12 2.16667 6.14 2.18 6.18C2.19333 6.23333 2.16667 6.27333 2.1 6.3C2.1 6.38 2.1 6.45333 2.1 6.52C2.12667 6.52 2.14667 6.53333 2.16 6.56C2.18667 6.61333 2.16667 6.66 2.1 6.7C2.1 6.76667 2.1 6.83333 2.1 6.9C2.12667 6.9 2.15333 6.92 2.18 6.96C2.19333 7.01333 2.16667 7.06 2.1 7.1C2.08667 7.15333 2.08 7.22 2.08 7.3C2.12 7.3 2.14667 7.31333 2.16 7.34C2.18667 7.39333 2.16 7.44 2.08 7.48C2.08 7.54667 2.08 7.61333 2.08 7.68C2.12 7.68 2.15333 7.7 2.18 7.74C2.19333 7.79333 2.16 7.84 2.08 7.88C2.06667 7.96 2.06 8.02667 2.06 8.08C2.11333 8.06667 2.15333 8.08667 2.18 8.14C2.19333 8.19333 2.15333 8.24 2.06 8.28C2.06 8.36 2.06 8.42667 2.06 8.48C2.12667 8.45333 2.16667 8.47333 2.18 8.54C2.19333 8.59333 2.15333 8.63333 2.06 8.66C2.06 8.75333 2.06 8.82 2.06 8.86C2.11333 8.84667 2.15333 8.86667 2.18 8.92C2.19333 8.97333 2.15333 9.02 2.06 9.06C2.06 9.12667 2.06 9.19333 2.06 9.26C2.11333 9.23333 2.15333 9.25333 2.18 9.32C2.19333 9.37333 2.15333 9.41333 2.06 9.44C2.06 9.50667 2.06667 9.57333 2.08 9.64C2.12 9.62667 2.15333 9.64667 2.18 9.7C2.19333 9.75333 2.16 9.8 2.08 9.84C2.08 9.90667 2.08 9.97333 2.08 10.04C2.13333 10.0267 2.16667 10.0467 2.18 10.1C2.19333 10.1533 2.16667 10.1933 2.1 10.22C2.1 10.2867 2.1 10.3533 2.1 10.42C2.14 10.4333 2.16667 10.4533 2.18 10.48C2.19333 10.5467 2.17333 10.5867 2.12 10.6C2.12 10.68 2.12 10.7533 2.12 10.82C2.14667 10.8333 2.16667 10.8533 2.18 10.88C2.19333 10.9333 2.18 10.9667 2.14 10.98C2.14 11.0733 2.14667 11.16 2.16 11.24C2.16 11.2533 2.16667 11.26 2.18 11.26C2.19333 11.3 2.18667 11.3267 2.16 11.34C2.17333 11.4733 2.18667 11.6 2.2 11.72C2.22667 12.0533 2.24667 12.3867 2.26 12.72C2.28667 13.04 2.31333 13.36 2.34 13.68C2.35333 13.7333 2.36 13.78 2.36 13.82C2.36 13.86 2.36 13.9067 2.36 13.96C2.36 14.04 2.36 14.1267 2.36 14.22C2.36 14.3 2.37333 14.38 2.4 14.46C2.42667 14.5533 2.49333 14.6667 2.6 14.8C2.84 14.7867 3.07333 14.78 3.3 14.78C3.52667 14.78 3.76 14.78 4 14.78C4.25333 14.78 4.51333 14.78 4.78 14.78C5.04667 14.78 5.31333 14.78 5.58 14.78C5.71333 14.7667 5.84667 14.76 5.98 14.76C6.00667 14.76 6.04667 14.76 6.1 14.76C6.19333 14.7733 6.28667 14.7733 6.38 14.76C6.48667 14.7467 6.57333 14.7133 6.64 14.66C6.73333 14.5667 6.78 14.4467 6.78 14.3C6.78 14.14 6.77333 13.9933 6.76 13.86C6.76 13.7533 6.76 13.68 6.76 13.64C6.73333 13.1467 6.70667 12.6467 6.68 12.14C6.66667 11.6333 6.65333 11.1333 6.64 10.64C6.64 10.5467 6.64 10.4533 6.64 10.36C6.64 10.2533 6.64 10.1533 6.64 10.06C6.64 9.96667 6.64 9.88 6.64 9.8C6.64 9.72 6.64 9.63333 6.64 9.54C6.64 9.54 6.64 9.53333 6.64 9.52C6.6 9.53333 6.56667 9.52 6.54 9.48C6.51333 9.42667 6.53333 9.38 6.6 9.34C6.58667 9.27333 6.58 9.21333 6.58 9.16C6.59333 9.09333 6.64667 9.04 6.74 9C6.84667 8.97333 6.92 8.98667 6.96 9.04C7 9.08 7.02667 9.13333 7.04 9.2C7.04 9.21333 7.04 9.22 7.04 9.22C7.05333 9.23333 7.06 9.25333 7.06 9.28C7.08667 9.24 7.10667 9.28667 7.12 9.42C7.13333 9.43333 7.14667 9.45333 7.16 9.48C7.2 9.46667 7.22667 9.48667 7.24 9.54C7.26667 9.56667 7.26667 9.59333 7.24 9.62C7.28 9.7 7.31333 9.75333 7.34 9.78ZM10.76 3.78C10.7733 3.75333 10.7533 3.74667 10.7 3.76L10.44 3.88L10.76 3.78ZM10.34 4.44C10.3533 4.42667 10.34 4.42667 10.3 4.44L9.9 4.62L10.02 4.58L10.34 4.44ZM9.78 5.4C9.80667 5.34667 9.82667 5.30667 9.84 5.28L9.7 5.32L9.38 5.42C9.39333 5.44667 9.40667 5.47333 9.42 5.5L9.66 5.44L9.78 5.4ZM11.84 10.36C11.8 10.4133 11.76 10.4667 11.72 10.52C11.6933 10.5733 11.6733 10.6267 11.66 10.68L11.94 10.54C11.94 10.54 11.94 10.5333 11.94 10.52C11.9533 10.52 11.98 10.5133 12.02 10.5C12.0067 10.4333 12 10.3667 12 10.3L11.84 10.36ZM7.26 10.6C7.23333 10.56 7.20667 10.5267 7.18 10.5C7.16667 10.46 7.14667 10.4267 7.12 10.4C7.12 10.48 7.12 10.56 7.12 10.64C7.12 10.64 7.12 10.6467 7.12 10.66L7.26 10.6ZM11.5 10.92C11.46 10.9867 11.4267 11.04 11.4 11.08C11.3467 11.16 11.32 11.2133 11.32 11.24L11.62 11.1L11.92 10.96L12.04 10.92C12.0267 10.8133 12.02 10.74 12.02 10.7L11.72 10.84L11.5 10.92ZM7.46 10.88C7.40667 10.8267 7.36 10.7933 7.32 10.78L7.12 10.86C7.13333 10.9133 7.14 10.9667 7.14 11.02L7.36 10.92L7.46 10.88ZM7.64 11.18C7.61333 11.1267 7.58667 11.08 7.56 11.04L7.42 11.1L7.14 11.22C7.14 11.2733 7.14 11.3333 7.14 11.4L7.4 11.3L7.64 11.18ZM11.14 11.5C11.0867 11.58 11.0333 11.6467 10.98 11.7L11.3 11.58L11.62 11.42C11.6333 11.42 11.64 11.42 11.64 11.42L12.04 11.3C12.04 11.22 12.0267 11.16 12 11.12L11.7 11.26L11.4 11.4C11.4 11.4 11.4 11.4067 11.4 11.42L11.14 11.5ZM7.92 11.56C7.90667 11.5333 7.89333 11.5133 7.88 11.5C7.88 11.5 7.87333 11.5 7.86 11.5C7.86 11.4867 7.86 11.48 7.86 11.48C7.82 11.4267 7.78667 11.3733 7.76 11.32L7.46 11.46L7.14 11.58C7.15333 11.6733 7.16 11.7667 7.16 11.86L7.38 11.76L7.72 11.62L7.92 11.56ZM2.14 15.02C2.12667 15.0067 2.11333 14.9867 2.1 14.96L1.94 15.02L1.64 15.16L1.42 15.26L1.6 15.18C1.61333 15.18 1.62 15.18 1.62 15.18L1.96 15.08L2.14 15.02Z" fill="#202124"/>
</svg>
