<svg width="63" height="16" viewBox="0 0 63 16" fill="none" xmlns="http://www.w3.org/2000/svg">
<path d="M0.94 15C0.806667 15 0.693333 14.96 0.6 14.88C0.52 14.7867 0.48 14.6733 0.48 14.54V5.06C0.48 4.92667 0.52 4.82 0.6 4.74C0.693333 4.64667 0.806667 4.6 0.94 4.6H1.84C1.97333 4.6 2.08 4.64667 2.16 4.74C2.25333 4.82 2.3 4.92667 2.3 5.06V5.76C2.60667 5.34667 2.99333 5.02 3.46 4.78C3.92667 4.52667 4.48667 4.4 5.14 4.4C6.64667 4.38667 7.71333 5 8.34 6.24C8.64667 5.68 9.09333 5.23333 9.68 4.9C10.2667 4.56667 10.9333 4.4 11.68 4.4C12.3733 4.4 13 4.56 13.56 4.88C14.1333 5.2 14.58 5.68667 14.9 6.34C15.2333 6.98 15.4 7.78667 15.4 8.76V14.54C15.4 14.6733 15.3533 14.7867 15.26 14.88C15.18 14.96 15.0733 15 14.94 15H14C13.8667 15 13.7533 14.96 13.66 14.88C13.58 14.7867 13.54 14.6733 13.54 14.54V8.94C13.54 8.19333 13.4333 7.60667 13.22 7.18C13.0067 6.75333 12.72 6.45333 12.36 6.28C12 6.10667 11.6067 6.02 11.18 6.02C10.8333 6.02 10.48 6.10667 10.12 6.28C9.76 6.45333 9.46 6.75333 9.22 7.18C8.99333 7.60667 8.88 8.19333 8.88 8.94V14.54C8.88 14.6733 8.83333 14.7867 8.74 14.88C8.66 14.96 8.55333 15 8.42 15H7.48C7.34667 15 7.23333 14.96 7.14 14.88C7.06 14.7867 7.02 14.6733 7.02 14.54V8.94C7.02 8.19333 6.90667 7.60667 6.68 7.18C6.45333 6.75333 6.16 6.45333 5.8 6.28C5.44 6.10667 5.06 6.02 4.66 6.02C4.31333 6.02 3.96 6.10667 3.6 6.28C3.24 6.45333 2.94 6.75333 2.7 7.18C2.47333 7.60667 2.36 8.18667 2.36 8.92V14.54C2.36 14.6733 2.31333 14.7867 2.22 14.88C2.14 14.96 2.03333 15 1.9 15H0.94ZM18.7134 15C18.5801 15 18.4668 14.96 18.3734 14.88C18.2934 14.7867 18.2534 14.6733 18.2534 14.54V5.06C18.2534 4.92667 18.2934 4.82 18.3734 4.74C18.4668 4.64667 18.5801 4.6 18.7134 4.6H19.6734C19.8068 4.6 19.9134 4.64667 19.9934 4.74C20.0734 4.82 20.1134 4.92667 20.1134 5.06V14.54C20.1134 14.6733 20.0734 14.7867 19.9934 14.88C19.9134 14.96 19.8068 15 19.6734 15H18.7134ZM18.5534 2.66C18.4201 2.66 18.3068 2.62 18.2134 2.54C18.1334 2.44667 18.0934 2.33333 18.0934 2.2V1.12C18.0934 0.986666 18.1334 0.879999 18.2134 0.799999C18.3068 0.706666 18.4201 0.66 18.5534 0.66H19.8134C19.9468 0.66 20.0534 0.706666 20.1334 0.799999C20.2268 0.879999 20.2734 0.986666 20.2734 1.12V2.2C20.2734 2.33333 20.2268 2.44667 20.1334 2.54C20.0534 2.62 19.9468 2.66 19.8134 2.66H18.5534ZM23.5572 15C23.4239 15 23.3105 14.96 23.2172 14.88C23.1372 14.7867 23.0972 14.6733 23.0972 14.54V5.06C23.0972 4.92667 23.1372 4.82 23.2172 4.74C23.3105 4.64667 23.4239 4.6 23.5572 4.6H24.4972C24.6305 4.6 24.7372 4.64667 24.8172 4.74C24.9105 4.82 24.9572 4.92667 24.9572 5.06V5.94C25.3039 5.48667 25.7372 5.12 26.2572 4.84C26.7905 4.54667 27.4705 4.4 28.2972 4.4C29.1639 4.4 29.8972 4.59333 30.4972 4.98C31.1105 5.35333 31.5705 5.88 31.8772 6.56C32.1839 7.22667 32.3372 8.00667 32.3372 8.9V14.54C32.3372 14.6733 32.2972 14.7867 32.2172 14.88C32.1372 14.96 32.0305 15 31.8972 15H30.8972C30.7639 15 30.6505 14.96 30.5572 14.88C30.4772 14.7867 30.4372 14.6733 30.4372 14.54V9C30.4372 8.06667 30.2105 7.34 29.7572 6.82C29.3039 6.28667 28.6372 6.02 27.7572 6.02C26.9305 6.02 26.2639 6.28667 25.7572 6.82C25.2639 7.34 25.0172 8.06667 25.0172 9V14.54C25.0172 14.6733 24.9705 14.7867 24.8772 14.88C24.7972 14.96 24.6905 15 24.5572 15H23.5572ZM39.1061 15.2C38.2528 15.2 37.5261 15.0133 36.9261 14.64C36.3394 14.2533 35.8928 13.72 35.5861 13.04C35.2794 12.36 35.1261 11.58 35.1261 10.7V5.06C35.1261 4.92667 35.1661 4.82 35.2461 4.74C35.3394 4.64667 35.4528 4.6 35.5861 4.6H36.5861C36.7194 4.6 36.8261 4.64667 36.9061 4.74C36.9994 4.82 37.0461 4.92667 37.0461 5.06V10.6C37.0461 12.5867 37.9128 13.58 39.6461 13.58C40.4728 13.58 41.1328 13.32 41.6261 12.8C42.1328 12.2667 42.3861 11.5333 42.3861 10.6V5.06C42.3861 4.92667 42.4261 4.82 42.5061 4.74C42.5994 4.64667 42.7128 4.6 42.8461 4.6H43.8261C43.9728 4.6 44.0861 4.64667 44.1661 4.74C44.2461 4.82 44.2861 4.92667 44.2861 5.06V14.54C44.2861 14.6733 44.2461 14.7867 44.1661 14.88C44.0861 14.96 43.9728 15 43.8261 15H42.9061C42.7728 15 42.6594 14.96 42.5661 14.88C42.4861 14.7867 42.4461 14.6733 42.4461 14.54V13.66C42.0861 14.1267 41.6461 14.5 41.1261 14.78C40.6194 15.06 39.9461 15.2 39.1061 15.2ZM47.7173 15C47.584 15 47.4707 14.96 47.3773 14.88C47.2973 14.7867 47.2573 14.6733 47.2573 14.54V5.06C47.2573 4.92667 47.2973 4.82 47.3773 4.74C47.4707 4.64667 47.584 4.6 47.7173 4.6H48.6173C48.7507 4.6 48.8573 4.64667 48.9373 4.74C49.0307 4.82 49.0773 4.92667 49.0773 5.06V5.76C49.384 5.34667 49.7707 5.02 50.2373 4.78C50.704 4.52667 51.264 4.4 51.9173 4.4C53.424 4.38667 54.4907 5 55.1173 6.24C55.424 5.68 55.8707 5.23333 56.4573 4.9C57.044 4.56667 57.7107 4.4 58.4573 4.4C59.1507 4.4 59.7773 4.56 60.3373 4.88C60.9107 5.2 61.3573 5.68667 61.6773 6.34C62.0107 6.98 62.1773 7.78667 62.1773 8.76V14.54C62.1773 14.6733 62.1307 14.7867 62.0373 14.88C61.9573 14.96 61.8507 15 61.7173 15H60.7773C60.644 15 60.5307 14.96 60.4373 14.88C60.3573 14.7867 60.3173 14.6733 60.3173 14.54V8.94C60.3173 8.19333 60.2107 7.60667 59.9973 7.18C59.784 6.75333 59.4973 6.45333 59.1373 6.28C58.7773 6.10667 58.384 6.02 57.9573 6.02C57.6107 6.02 57.2573 6.10667 56.8973 6.28C56.5373 6.45333 56.2373 6.75333 55.9973 7.18C55.7707 7.60667 55.6573 8.19333 55.6573 8.94V14.54C55.6573 14.6733 55.6107 14.7867 55.5173 14.88C55.4373 14.96 55.3307 15 55.1973 15H54.2573C54.124 15 54.0107 14.96 53.9173 14.88C53.8373 14.7867 53.7973 14.6733 53.7973 14.54V8.94C53.7973 8.19333 53.684 7.60667 53.4573 7.18C53.2307 6.75333 52.9373 6.45333 52.5773 6.28C52.2173 6.10667 51.8373 6.02 51.4373 6.02C51.0907 6.02 50.7373 6.10667 50.3773 6.28C50.0173 6.45333 49.7173 6.75333 49.4773 7.18C49.2507 7.60667 49.1373 8.18667 49.1373 8.92V14.54C49.1373 14.6733 49.0907 14.7867 48.9973 14.88C48.9173 14.96 48.8107 15 48.6773 15H47.7173Z" fill="#202124"/>
</svg>
